<svg xmlns="http://www.w3.org/2000/svg" width="118.52" height="116.047" viewBox="0 0 118.52 116.047"><defs><style>.cls-1{fill-rule:evenodd}</style></defs><g id="footer-logo" transform="translate(2032.414 -1341.904)"><path id="Path_210" data-name="Path 210" d="M-1946.725 1428.888c0 8.231-5.228 13.791-12.974 13.791-7.822 0-13.047-5.522-13.047-13.791 0-8.373 5.19-13.862 13.086-13.862 7.707 0 12.935 5.6 12.935 13.862m-20.166-.109c0 5.669 2.743 9.079 7.231 9.121 4.373 0 7.079-3.489 7.079-9.121 0-5.557-2.743-9.008-7.153-9.008-4.378 0-7.157 3.525-7.157 9.008"/><path id="Path_211" data-name="Path 211" d="M-1959.7 1442.882c-7.927 0-13.25-5.625-13.25-13.992 0-8.543 5.216-14.065 13.289-14.065 7.857 0 13.139 5.651 13.139 14.065 0 8.367-5.3 13.992-13.178 13.992m.039-27.654c-7.829 0-12.884 5.365-12.884 13.662 0 8.128 5.16 13.586 12.845 13.586 7.639 0 12.769-5.458 12.769-13.586 0-8.171-5.115-13.662-12.73-13.662m0 22.875c-4.656-.043-7.435-3.532-7.435-9.324 0-5.6 2.889-9.211 7.361-9.211 4.536 0 7.357 3.529 7.357 9.211 0 5.751-2.792 9.324-7.283 9.324m-.074-18.131c-4.225 0-6.956 3.457-6.956 8.807 0 5.544 2.631 8.88 7.033 8.919 4.238 0 6.874-3.416 6.874-8.919 0-5.432-2.662-8.807-6.951-8.807"/><path id="Path_212" data-name="Path 212" d="M-1959.7 1443.065c-8.034 0-13.434-5.7-13.434-14.175 0-8.522 5.414-14.25 13.473-14.25 7.968 0 13.324 5.728 13.324 14.25 0 8.479-5.372 14.175-13.363 14.175m.039-27.652c-7.716 0-12.7 5.29-12.7 13.477 0 8.017 5.086 13.4 12.66 13.4 7.528 0 12.587-5.387 12.587-13.4 0-8.059-5.041-13.477-12.548-13.477m0 22.875c-4.7-.045-7.617-3.689-7.617-9.509 0-5.706 2.961-9.4 7.543-9.4 4.651 0 7.539 3.6 7.539 9.4 0 5.867-2.86 9.509-7.465 9.509m-.074-18.131c-4.176 0-6.77 3.3-6.77 8.622 0 5.43 2.561 8.695 6.847 8.738 4.124 0 6.69-3.349 6.69-8.738 0-5.319-2.593-8.622-6.767-8.622"/><path id="Path_213" data-name="Path 213" d="M-1959.7 1443.27c-8.156 0-13.637-5.781-13.637-14.382 0-8.643 5.494-14.455 13.676-14.455 8.09 0 13.523 5.812 13.523 14.455 0 8.6-5.45 14.382-13.562 14.382m.039-28.429c-7.939 0-13.272 5.648-13.272 14.047 0 8.361 5.319 13.974 13.233 13.974 7.871 0 13.159-5.613 13.159-13.974 0-8.4-5.275-14.047-13.12-14.047m-.039 27.654c-7.7 0-12.861-5.467-12.861-13.607 0-8.3 5.061-13.678 12.9-13.678 7.627 0 12.751 5.5 12.751 13.678 0 8.14-5.14 13.607-12.79 13.607m.039-26.881c-7.592 0-12.5 5.217-12.5 13.274 0 7.9 5.006 13.2 12.457 13.2 7.407 0 12.386-5.3 12.386-13.2 0-7.934-4.962-13.274-12.347-13.274m0 22.877c-4.824-.047-7.82-3.767-7.82-9.712 0-5.831 3.04-9.6 7.746-9.6 4.776 0 7.743 3.677 7.743 9.6 0 5.993-2.939 9.712-7.669 9.712m-.074-18.9c-4.46 0-7.342 3.609-7.342 9.192 0 5.7 2.844 9.263 7.416 9.308 4.48 0 7.264-3.567 7.264-9.308 0-5.671-2.812-9.192-7.338-9.192m.077 18.133c-4.413-.044-7.048-3.387-7.048-8.941 0-5.443 2.671-8.823 6.971-8.823s6.968 3.38 6.968 8.823c0 5.513-2.641 8.941-6.891 8.941m-.077-17.36c-4.051 0-6.566 3.226-6.566 8.419 0 5.3 2.484 8.493 6.646 8.536 4 0 6.484-3.271 6.484-8.536 0-5.193-2.515-8.419-6.564-8.419"/><path id="Path_214" data-name="Path 214" class="cls-1" d="M-2017.863 1423.749h-.075l-2.875 8.516a.263.263 0 00.036.242.259.259 0 00.22.113h5.274a.253.253 0 00.218-.113.255.255 0 00.038-.242zm-5.134 14.582l-1.785 4.5a.27.27 0 01-.251.173h-7.112a.262.262 0 01-.22-.119.261.261 0 01-.03-.248l10.507-27.327a.269.269 0 01.253-.17h7.537a.263.263 0 01.252.175l10.291 27.322a.268.268 0 01-.029.248.259.259 0 01-.225.119h-7.143a.265.265 0 01-.251-.182l-1.686-4.486a.26.26 0 00-.248-.177h-9.607a.267.267 0 00-.253.172"/><path id="Path_215" data-name="Path 215" class="cls-1" d="M-1941.115 1415.14h6.758a.246.246 0 01.209.1l13.027 16.93h.075v-16.764a.264.264 0 01.265-.269h6.622a.268.268 0 01.265.269v27.322a.271.271 0 01-.265.273h-6.759a.241.241 0 01-.209-.108l-13.023-16.967h-.076v16.8a.269.269 0 01-.266.273h-6.623a.268.268 0 01-.263-.273v-27.322a.265.265 0 01.263-.269"/><path id="Path_216" data-name="Path 216" class="cls-1" d="M-1977.85 1420.7a.444.444 0 00.444-.441v-4.672a.443.443 0 00-.444-.443h-20.024a.443.443 0 00-.441.443v26.975a.447.447 0 00.441.446h20.024a.447.447 0 00.444-.446v-4.67a.447.447 0 00-.444-.446h-12.75a.441.441 0 01-.444-.44v-5.033a.443.443 0 01.444-.443h10.248a.446.446 0 00.442-.445v-4.672a.442.442 0 00-.442-.44h-10.248a.448.448 0 01-.444-.447v-4.378a.448.448 0 01.444-.448z"/><path id="Path_217" data-name="Path 217" d="M-1973.057 1345.67a26.646 26.646 0 00-26.552 26.734 26.491 26.491 0 0026.552 26.55 26.492 26.492 0 0026.553-26.55 26.647 26.647 0 00-26.553-26.734m-13.636 36.6c-3.586-.181-5.38-1.977-5.38-5.562 3.587 0 5.38 1.8 5.56 5.381v.181zm0-6.639c-3.586-.179-5.38-1.975-5.38-5.562 3.587 0 5.38 1.794 5.56 5.383v.179zm0-6.637c-3.586-.18-5.38-1.973-5.38-5.564 3.587 0 5.38 1.795 5.56 5.384v.18zm6.639 21.887c-3.589 0-5.562-1.793-5.562-5.381v-.18h.178c3.59 0 5.384 1.792 5.563 5.561zm0-6.639c-3.589 0-5.562-1.972-5.562-5.383v-.179h.178c3.59 0 5.384 1.795 5.563 5.562zm0-6.639c-3.589 0-5.562-1.972-5.562-5.38v-.18h.178c3.59 0 5.384 1.8 5.563 5.56zm0-6.638c-3.589-.177-5.562-1.971-5.562-5.381v-.181h.178c3.59 0 5.384 1.8 5.563 5.562zm0-6.637c-3.589-.179-5.562-1.975-5.562-5.382v-.179h.178c3.59 0 5.384 1.793 5.563 5.382v.179zm6.281 27.27c-3.59 0-5.564-1.975-5.383-5.383v-.179c3.587 0 5.383 1.794 5.56 5.562zm0-6.639c-3.59-.178-5.564-1.971-5.383-5.381v-.179c3.587 0 5.383 1.794 5.56 5.56zm0-6.636c-3.59-.178-5.564-1.972-5.383-5.384v-.179c3.587 0 5.383 1.8 5.56 5.385v.178zm0-6.641c-3.59-.178-5.564-1.969-5.383-5.559 3.587 0 5.383 1.794 5.56 5.381v.178zm0-6.637c-3.59-.177-5.564-1.975-5.383-5.562 3.587 0 5.383 1.8 5.56 5.385v.177zm.716-4.126c-2.512-2.692-2.512-5.379 0-7.714 2.512 2.335 2.512 5.022 0 7.714m.717 30.679h-.18c.18-3.768 1.975-5.562 5.561-5.562v.179c0 3.408-1.793 5.383-5.381 5.383m0-6.639h-.18c.18-3.766 1.975-5.56 5.561-5.56v.179q0 5.115-5.381 5.381m0-6.636h-.18v-.178c.18-3.587 1.975-5.385 5.561-5.385v.179q0 5.118-5.381 5.384m0-6.641h-.18v-.178c.18-3.587 1.975-5.381 5.561-5.381 0 3.59-1.793 5.381-5.381 5.559m0-6.637h-.18v-.177c.18-3.589 1.975-5.385 5.561-5.385 0 3.587-1.793 5.385-5.381 5.562m6.28 25.836h-.178c.178-3.769 1.971-5.561 5.56-5.561v.18c.179 3.588-1.793 5.381-5.382 5.381m0-6.639h-.178c.178-3.767 1.971-5.562 5.56-5.562v.179c.179 3.411-1.793 5.383-5.382 5.383m0-6.639h-.178c.178-3.765 1.971-5.56 5.56-5.56v.18c.179 3.408-1.793 5.38-5.382 5.38m0-6.638h-.178c.178-3.765 1.971-5.562 5.56-5.562v.181c.179 3.41-1.793 5.2-5.382 5.381m0-6.637h-.178v-.179c.178-3.589 1.971-5.382 5.56-5.382v.179c.179 3.407-1.793 5.2-5.382 5.382m6.638 17.942h-.18v-.181q.27-5.379 5.383-5.381h.178c0 3.585-1.794 5.381-5.381 5.562m0-6.639h-.18v-.179q.27-5.383 5.383-5.383h.178c0 3.587-1.794 5.383-5.381 5.562m5.381-12.2c0 3.591-1.794 5.384-5.381 5.564h-.18v-.18q.27-5.383 5.383-5.384zm-19.016 39.471a30.59 30.59 0 01-30.5-30.5 30.478 30.478 0 0130.5-30.5 30.474 30.474 0 0130.5 30.5 30.586 30.586 0 01-30.5 30.5m0-59.206a28.791 28.791 0 00-28.7 28.708 28.788 28.788 0 0028.7 28.7 28.787 28.787 0 0028.7-28.7 28.79 28.79 0 00-28.7-28.708"/><path id="Path_218" data-name="Path 218" d="M-2026.034 1455.308a1.748 1.748 0 01-.07.49 2.543 2.543 0 01-.195.492 2.825 2.825 0 01-.646.824 3.135 3.135 0 01-.97.567 3.309 3.309 0 01-1.171.207h-.138a3.665 3.665 0 01-.706-.063 3.622 3.622 0 01-.651-.187 2.874 2.874 0 01-1-.636 2.611 2.611 0 01-.622-.993 3.8 3.8 0 01-.213-1.313 4.309 4.309 0 01.239-1.511 2.8 2.8 0 01.672-1.073 2.774 2.774 0 01.994-.617 3.561 3.561 0 011.215-.2 3.558 3.558 0 011.9.437 2.445 2.445 0 01.972 1.012 3.427 3.427 0 01.315 1.129h-1.967q-.322-1.02-1.071-1.02h-.082a.844.844 0 00-.594.252 1.543 1.543 0 00-.388.666 2.8 2.8 0 00-.131.85 2.552 2.552 0 00.134.838 1.428 1.428 0 00.4.629.939.939 0 00.651.24 1.1 1.1 0 00.677-.232 1.2 1.2 0 00.408-.789z"/><path id="Path_219" data-name="Path 219" d="M-2017.486 1457.745h-2.1v-6.245h2.1v6.246z"/><path id="Path_220" data-name="Path 220" d="M-2005.687 1453.188h-1.837v4.558h-2.1v-4.558h-1.828v-1.688h5.768z"/><path id="Path_221" data-name="Path 221" d="M-1993.092 1451.5l-2.371 4v2.243h-2.036v-2.243l-2.31-4h2.31l1.019 2.033 1.018-2.033z"/><path id="Path_222" data-name="Path 222" d="M-1975.3 1457.745h-5.225v-6.182h5.086v1.5h-2.982v.806h2.51v1.5h-2.51v.888h3.121z"/><path id="Path_223" data-name="Path 223" d="M-1962.776 1455.808a1.745 1.745 0 01-.4 1.138 2.49 2.49 0 01-1.039.75 3.644 3.644 0 01-1.349.255 4.426 4.426 0 01-1.449-.227 2.318 2.318 0 01-1.069-.715 1.882 1.882 0 01-.4-1.231h1.974c.11.451.449.673 1.013.673a.763.763 0 00.485-.145.417.417 0 00.181-.33c0-.19-.132-.324-.4-.4s-.442-.112-.5-.128a16.397 16.397 0 01-1.19-.345 3.817 3.817 0 01-.484-.212 1.958 1.958 0 01-.707-.606 1.532 1.532 0 01-.272-.929 2.254 2.254 0 01.029-.359 1.819 1.819 0 01.229-.648 1.832 1.832 0 01.488-.544 2.366 2.366 0 01.742-.37 3.31 3.31 0 01.994-.135h.193a3.444 3.444 0 011.826.457 2.006 2.006 0 01.89 1.578h-1.97a.527.527 0 00-.3-.41 1.226 1.226 0 00-.6-.158c-.293 0-.466.076-.515.23a.327.327 0 00-.017.106c0 .263.411.476 1.23.635a4.178 4.178 0 011.735.686 1.739 1.739 0 01.477.559 1.536 1.536 0 01.169.731z"/><path id="Path_224" data-name="Path 224" d="M-1950.467 1453.188h-1.837v4.558h-2.1v-4.558h-1.828v-1.688h5.77z"/><path id="Path_225" data-name="Path 225" d="M-1937.74 1457.745h-2.1l-.212-.812h-2.031l-.21.812h-2.1l1.576-4.407.664-1.839h2.174l1.579 4.408zm-2.717-2.1l-.609-2.036-.616 2.036z"/><path id="Path_226" data-name="Path 226" d="M-1925.9 1453.188h-1.838v4.558h-2.1v-4.558h-1.831v-1.688h5.771z"/><path id="Path_227" data-name="Path 227" d="M-1913.894 1457.745h-5.226v-6.182h5.086v1.5h-2.98v.806h2.508v1.5h-2.508v.888h3.12z"/></g></svg>